<?xml version="1.0" encoding="utf-8"?>
<!-- Generator: Adobe Illustrator 21.0.0, SVG Export Plug-In . SVG Version: 6.00 Build 0)  -->
<svg version="1.1" id="图层_39" xmlns="http://www.w3.org/2000/svg" xmlns:xlink="http://www.w3.org/1999/xlink" x="0px" y="0px"
	 viewBox="0 0 16 16" style="enable-background:new 0 0 16 16;" xml:space="preserve">
<style type="text/css">
	.st0{fill:#5D4037;}
	.st1{fill:#FFCDD2;}
	.st2{fill:#B71C1C;}
	.st3{opacity:0.3;fill:#E57373;enable-background:new    ;}
	.st4{fill:#720914;}
</style>
<title>016edittrash</title>
<polygon class="st0" points="2,16 2,5 0.5,5 0.5,2 4,2 4,0 12,0 12,2 15.5,2 15.5,5 14,5 14,16 "/>
<rect x="2.5" y="4.5" class="st1" width="11" height="11"/>
<rect x="10.5" y="6" class="st2" width="1.5" height="8"/>
<rect x="4" y="6" class="st2" width="1.5" height="8"/>
<rect x="7.3" y="6" class="st2" width="1.5" height="8"/>
<rect x="2.5" y="4.5" class="st3" width="11" height="0.5"/>
<rect x="1" y="2.5" class="st2" width="14" height="2"/>
<rect x="1" y="4" class="st4" width="14" height="0.5"/>
<rect x="4.5" y="1.5" class="st2" width="1" height="1"/>
<rect x="10.5" y="1.5" class="st2" width="1" height="1"/>
<rect x="4.5" y="0.5" class="st2" width="7" height="1"/>
</svg>
